<svg xmlns="http://www.w3.org/2000/svg" viewBox="0 0 200 200" width="200" height="200">
<rect width="200" height="200" style="fill:#282828;opacity:0"/>
<path d="M93,196s-15-6-12-25,8-40,3-42-19-4-19-4l5-30,14.59-2.24S83,80,85,76s1-10,1-14-2-12,2-13,12,5,14,5,1-5,1-5V4h5V50s5-1,5,8-11,10-5,13,17,7,20,10,11,10,3,30-14,30-9,50S126,207,93,196Z" style="fill:#97722c"/><ellipse cx="102.5" cy="123.5" rx="23.5" ry="47.5" style="fill:#728d00"/><ellipse cx="97.5" cy="120" rx="11" ry="18.5" style="fill:#388d00"/></svg>